<svg width="24" height="32" viewBox="0 0 24 32" fill="none" xmlns="http://www.w3.org/2000/svg">
<path fill-rule="evenodd" clip-rule="evenodd" d="M20.0347 13.3797C20.0347 15.9132 19.3751 18.2413 18.2724 20.0754H18.277C18.277 20.0754 15.4846 25.0577 13.3214 28.5857C12.6312 29.7113 11.3688 29.7108 10.6791 28.5848C8.5227 25.0646 5.73385 20.0862 5.73385 20.0862L5.72735 20.0754C4.62466 18.2413 3.96509 15.9132 3.96509 13.3797C3.96509 7.46305 7.56238 2.66666 11.9999 2.66666C16.4374 2.66666 20.0347 7.46305 20.0347 13.3797ZM15 13.3333C15 15.5425 13.6569 17.3333 12 17.3333C10.3431 17.3333 9 15.5425 9 13.3333C9 11.1242 10.3431 9.33332 12 9.33332C13.6569 9.33332 15 11.1242 15 13.3333Z" fill="white"/>
</svg>
