<svg width="24" height="32" viewBox="0 0 24 32" fill="none" xmlns="http://www.w3.org/2000/svg">
<path d="M2.49083 11.6118C1.38751 8.65956 2.50075 5.40136 4.62208 3.7043C5.6434 2.88723 6.96338 3.24183 7.66773 4.52246L9.2304 7.36367C9.89551 8.57296 9.99745 10.1767 9.49446 11.518L9.08473 12.6106C8.96613 12.9269 8.94737 13.2928 9.0687 13.6072C9.28975 14.1801 9.76047 15.1953 10.6673 16.4044C11.5741 17.6135 12.3355 18.2411 12.7652 18.5358C13.001 18.6976 13.2754 18.6726 13.5126 18.5144L14.3321 17.9681C15.338 17.2975 16.5408 17.4334 17.4478 18.3202L19.5787 20.4038C20.5392 21.3429 20.8051 23.1029 20.1923 24.4646C18.9195 27.2931 16.4759 28.7774 14.2617 27.3063C12.3956 26.0665 10.0109 24.0145 7.48528 20.647C4.95967 17.2796 3.42071 14.1 2.49083 11.6118Z" fill="white"/>
</svg>
